<mxfile host="app.diagrams.net" agent="Mozilla/5.0 (X11; Ubuntu; Linux x86_64; rv:132.0) Gecko/20100101 Firefox/132.0" version="24.8.3">
  <diagram name="Page-1" id="Nyvt-hzg5-OTyWfcXDuW">
    <mxGraphModel dx="2012" dy="795" grid="1" gridSize="10" guides="1" tooltips="1" connect="1" arrows="1" fold="1" page="1" pageScale="1" pageWidth="850" pageHeight="1100" math="1" shadow="0">
      <root>
        <mxCell id="0" />
        <mxCell id="1" parent="0" />
        <mxCell id="bmVQcAu1qgHnnyFYZqNL-1" value="" style="rounded=0;whiteSpace=wrap;html=1;" vertex="1" parent="1">
          <mxGeometry x="340" y="80" width="120" height="60" as="geometry" />
        </mxCell>
        <mxCell id="bmVQcAu1qgHnnyFYZqNL-2" value="" style="rounded=0;whiteSpace=wrap;html=1;" vertex="1" parent="1">
          <mxGeometry x="340" y="210" width="120" height="60" as="geometry" />
        </mxCell>
        <mxCell id="bmVQcAu1qgHnnyFYZqNL-3" value="" style="rounded=0;whiteSpace=wrap;html=1;" vertex="1" parent="1">
          <mxGeometry x="130" y="350" width="120" height="60" as="geometry" />
        </mxCell>
        <mxCell id="bmVQcAu1qgHnnyFYZqNL-4" value="" style="rounded=0;whiteSpace=wrap;html=1;" vertex="1" parent="1">
          <mxGeometry x="340" y="350" width="120" height="60" as="geometry" />
        </mxCell>
        <mxCell id="bmVQcAu1qgHnnyFYZqNL-5" value="" style="rounded=0;whiteSpace=wrap;html=1;" vertex="1" parent="1">
          <mxGeometry x="550" y="350" width="120" height="60" as="geometry" />
        </mxCell>
        <mxCell id="bmVQcAu1qgHnnyFYZqNL-7" value="" style="rounded=0;whiteSpace=wrap;html=1;" vertex="1" parent="1">
          <mxGeometry x="105" y="470" width="170" height="60" as="geometry" />
        </mxCell>
        <mxCell id="bmVQcAu1qgHnnyFYZqNL-11" value="" style="endArrow=classic;html=1;rounded=0;exitX=0.5;exitY=1;exitDx=0;exitDy=0;" edge="1" parent="1" source="bmVQcAu1qgHnnyFYZqNL-1" target="bmVQcAu1qgHnnyFYZqNL-2">
          <mxGeometry width="50" height="50" relative="1" as="geometry">
            <mxPoint x="420" y="440" as="sourcePoint" />
            <mxPoint x="470" y="390" as="targetPoint" />
          </mxGeometry>
        </mxCell>
        <mxCell id="bmVQcAu1qgHnnyFYZqNL-13" value="" style="endArrow=classic;html=1;rounded=0;exitX=0.5;exitY=1;exitDx=0;exitDy=0;entryX=0.5;entryY=0;entryDx=0;entryDy=0;" edge="1" parent="1" source="bmVQcAu1qgHnnyFYZqNL-2" target="bmVQcAu1qgHnnyFYZqNL-4">
          <mxGeometry width="50" height="50" relative="1" as="geometry">
            <mxPoint x="420" y="440" as="sourcePoint" />
            <mxPoint x="470" y="300" as="targetPoint" />
          </mxGeometry>
        </mxCell>
        <mxCell id="bmVQcAu1qgHnnyFYZqNL-14" value="" style="endArrow=classic;html=1;rounded=0;exitX=0;exitY=1;exitDx=0;exitDy=0;entryX=0.5;entryY=0;entryDx=0;entryDy=0;" edge="1" parent="1" source="bmVQcAu1qgHnnyFYZqNL-2" target="bmVQcAu1qgHnnyFYZqNL-3">
          <mxGeometry width="50" height="50" relative="1" as="geometry">
            <mxPoint x="420" y="440" as="sourcePoint" />
            <mxPoint x="470" y="390" as="targetPoint" />
          </mxGeometry>
        </mxCell>
        <mxCell id="bmVQcAu1qgHnnyFYZqNL-15" value="" style="endArrow=classic;html=1;rounded=0;exitX=1;exitY=1;exitDx=0;exitDy=0;entryX=0.5;entryY=0;entryDx=0;entryDy=0;" edge="1" parent="1" source="bmVQcAu1qgHnnyFYZqNL-2" target="bmVQcAu1qgHnnyFYZqNL-5">
          <mxGeometry width="50" height="50" relative="1" as="geometry">
            <mxPoint x="420" y="440" as="sourcePoint" />
            <mxPoint x="470" y="390" as="targetPoint" />
          </mxGeometry>
        </mxCell>
        <mxCell id="bmVQcAu1qgHnnyFYZqNL-16" value="" style="endArrow=classic;html=1;rounded=0;exitX=0.5;exitY=1;exitDx=0;exitDy=0;" edge="1" parent="1" source="bmVQcAu1qgHnnyFYZqNL-3" target="bmVQcAu1qgHnnyFYZqNL-7">
          <mxGeometry width="50" height="50" relative="1" as="geometry">
            <mxPoint x="420" y="440" as="sourcePoint" />
            <mxPoint x="470" y="390" as="targetPoint" />
          </mxGeometry>
        </mxCell>
        <mxCell id="bmVQcAu1qgHnnyFYZqNL-17" value="" style="endArrow=classic;html=1;rounded=0;exitX=0.5;exitY=1;exitDx=0;exitDy=0;entryX=0.5;entryY=0;entryDx=0;entryDy=0;" edge="1" parent="1" source="bmVQcAu1qgHnnyFYZqNL-4">
          <mxGeometry width="50" height="50" relative="1" as="geometry">
            <mxPoint x="420" y="440" as="sourcePoint" />
            <mxPoint x="400" y="470" as="targetPoint" />
          </mxGeometry>
        </mxCell>
        <mxCell id="bmVQcAu1qgHnnyFYZqNL-18" value="" style="endArrow=classic;html=1;rounded=0;exitX=0.5;exitY=1;exitDx=0;exitDy=0;entryX=0.5;entryY=0;entryDx=0;entryDy=0;" edge="1" parent="1" source="bmVQcAu1qgHnnyFYZqNL-5">
          <mxGeometry width="50" height="50" relative="1" as="geometry">
            <mxPoint x="420" y="440" as="sourcePoint" />
            <mxPoint x="610" y="470" as="targetPoint" />
          </mxGeometry>
        </mxCell>
        <mxCell id="bmVQcAu1qgHnnyFYZqNL-20" value="TFMessage" style="text;html=1;align=center;verticalAlign=middle;whiteSpace=wrap;rounded=0;" vertex="1" parent="1">
          <mxGeometry x="370" y="95" width="60" height="30" as="geometry" />
        </mxCell>
        <mxCell id="bmVQcAu1qgHnnyFYZqNL-21" value="pose_transform" style="text;html=1;align=center;verticalAlign=middle;whiteSpace=wrap;rounded=0;" vertex="1" parent="1">
          <mxGeometry x="370" y="225" width="60" height="30" as="geometry" />
        </mxCell>
        <mxCell id="bmVQcAu1qgHnnyFYZqNL-22" value="if frame_id = Kamera1" style="text;html=1;align=center;verticalAlign=middle;whiteSpace=wrap;rounded=0;" vertex="1" parent="1">
          <mxGeometry x="160" y="365" width="60" height="30" as="geometry" />
        </mxCell>
        <mxCell id="bmVQcAu1qgHnnyFYZqNL-23" value="if frame_id = Kamera2" style="text;html=1;align=center;verticalAlign=middle;whiteSpace=wrap;rounded=0;" vertex="1" parent="1">
          <mxGeometry x="370" y="365" width="60" height="30" as="geometry" />
        </mxCell>
        <mxCell id="bmVQcAu1qgHnnyFYZqNL-24" value="if frame_id = Kamera3" style="text;html=1;align=center;verticalAlign=middle;whiteSpace=wrap;rounded=0;" vertex="1" parent="1">
          <mxGeometry x="580" y="365" width="60" height="30" as="geometry" />
        </mxCell>
        <mxCell id="bmVQcAu1qgHnnyFYZqNL-25" value="\(\mathbf{P}_w = q^{-1} \cdot \mathbf{P}_c \cdot q + \mathbf{T}_{K1}\)" style="text;html=1;align=center;verticalAlign=middle;whiteSpace=wrap;rounded=0;" vertex="1" parent="1">
          <mxGeometry x="160" y="485" width="60" height="30" as="geometry" />
        </mxCell>
        <mxCell id="bmVQcAu1qgHnnyFYZqNL-27" value="" style="rounded=0;whiteSpace=wrap;html=1;" vertex="1" parent="1">
          <mxGeometry x="315" y="470" width="170" height="60" as="geometry" />
        </mxCell>
        <mxCell id="bmVQcAu1qgHnnyFYZqNL-28" value="" style="rounded=0;whiteSpace=wrap;html=1;" vertex="1" parent="1">
          <mxGeometry x="525" y="470" width="170" height="60" as="geometry" />
        </mxCell>
        <mxCell id="bmVQcAu1qgHnnyFYZqNL-29" value="\(\mathbf{P}_w = q^{-1} \cdot \mathbf{P}_c \cdot q + \mathbf{T}_{K2}\)" style="text;html=1;align=center;verticalAlign=middle;whiteSpace=wrap;rounded=0;" vertex="1" parent="1">
          <mxGeometry x="370" y="485" width="60" height="30" as="geometry" />
        </mxCell>
        <mxCell id="bmVQcAu1qgHnnyFYZqNL-30" value="\(\mathbf{P}_w = q^{-1} \cdot \mathbf{P}_c \cdot q + \mathbf{T}_{K3}\)" style="text;html=1;align=center;verticalAlign=middle;whiteSpace=wrap;rounded=0;" vertex="1" parent="1">
          <mxGeometry x="580" y="485" width="60" height="30" as="geometry" />
        </mxCell>
      </root>
    </mxGraphModel>
  </diagram>
</mxfile>
